<?xml version="1.0" encoding="UTF-8"?> <svg xmlns="http://www.w3.org/2000/svg" width="650" height="550" viewBox="0 0 650 550" fill="none"><path fill-rule="evenodd" clip-rule="evenodd" d="M382.832 457.518C382.832 460.529 377.987 459.412 374.977 459.412H273.182C270.16 459.412 265.326 460.588 265.326 457.518L278.886 378.973C278.886 377.526 279.46 376.138 280.484 375.115C281.507 374.091 282.895 373.517 284.342 373.517H363.805C364.521 373.517 365.231 373.658 365.893 373.932C366.555 374.206 367.156 374.608 367.663 375.115C368.17 375.621 368.572 376.223 368.846 376.885C369.12 377.547 369.261 378.257 369.261 378.973L382.832 457.518Z" fill="#262F63"></path><path d="M541.172 128.635C541.173 127.919 541.034 127.21 540.761 126.548C540.488 125.886 540.087 125.285 539.581 124.778C539.075 124.271 538.475 123.869 537.813 123.594C537.152 123.32 536.443 123.179 535.727 123.179H113.672C112.224 123.179 110.836 123.754 109.813 124.777C108.79 125.8 108.215 127.188 108.215 128.635V365.447H541.172V128.635Z" fill="#262F63"></path><path d="M533.685 136.199C533.687 135.506 533.552 134.819 533.289 134.178C533.025 133.536 532.639 132.954 532.151 132.463C531.663 131.972 531.083 131.582 530.445 131.317C529.807 131.051 529.123 130.914 528.432 130.914H121.214C119.818 130.914 118.479 131.471 117.491 132.462C116.504 133.453 115.949 134.798 115.949 136.199V365.568H533.685V136.199Z" fill="#F7FFFD"></path><path d="M478.207 164.064C478.208 163.662 478.133 163.264 477.988 162.892C477.842 162.521 477.628 162.183 477.358 161.899C477.089 161.614 476.768 161.388 476.415 161.234C476.062 161.08 475.684 161.001 475.302 161.001H250.118C249.346 161.001 248.606 161.324 248.06 161.898C247.514 162.473 247.207 163.252 247.207 164.064V293.001C247.207 295.21 248.998 297.001 251.207 297.001H474.207C476.416 297.001 478.207 295.21 478.207 293.001V164.064Z" fill="#72BFB6"></path><path d="M470.207 179.569C470.208 179.232 470.138 178.898 470.003 178.586C469.867 178.275 469.668 177.992 469.417 177.753C469.166 177.515 468.868 177.326 468.539 177.197C468.211 177.067 467.859 177.001 467.503 177.001H257.917C257.198 177.001 256.509 177.272 256.001 177.753C255.493 178.235 255.207 178.888 255.207 179.569V287.001C255.207 289.21 256.998 291.001 259.207 291.001H466.207C468.416 291.001 470.207 289.21 470.207 287.001V179.569Z" fill="#F7FFFD"></path><path d="M266.977 171.001C268.081 171.001 268.977 170.106 268.977 169.001C268.977 167.896 268.081 167.001 266.977 167.001C265.872 167.001 264.977 167.896 264.977 169.001C264.977 170.106 265.872 171.001 266.977 171.001Z" fill="white"></path><path d="M259.361 171.001C260.466 171.001 261.361 170.106 261.361 169.001C261.361 167.896 260.466 167.001 259.361 167.001C258.257 167.001 257.361 167.896 257.361 169.001C257.361 170.106 258.257 171.001 259.361 171.001Z" fill="white"></path><path d="M274.592 171.001C275.696 171.001 276.592 170.106 276.592 169.001C276.592 167.896 275.696 167.001 274.592 167.001C273.487 167.001 272.592 167.896 272.592 169.001C272.592 170.106 273.487 171.001 274.592 171.001Z" fill="white"></path><path d="M422.207 202.064C422.208 201.662 422.133 201.264 421.988 200.892C421.842 200.521 421.628 200.183 421.358 199.899C421.089 199.614 420.768 199.388 420.415 199.234C420.062 199.08 419.684 199.001 419.302 199.001H194.118C193.346 199.001 192.606 199.324 192.06 199.898C191.514 200.473 191.207 201.252 191.207 202.064V331.001C191.207 333.21 192.998 335.001 195.207 335.001H418.207C420.416 335.001 422.207 333.21 422.207 331.001V202.064Z" fill="#72BFB6"></path><path d="M414.207 217.569C414.208 217.232 414.138 216.898 414.003 216.586C413.867 216.275 413.668 215.992 413.417 215.753C413.166 215.515 412.868 215.326 412.539 215.197C412.211 215.067 411.859 215.001 411.503 215.001H201.917C201.198 215.001 200.509 215.272 200.001 215.753C199.493 216.235 199.207 216.888 199.207 217.569V325.001C199.207 327.21 200.998 329.001 203.207 329.001H410.207C412.416 329.001 414.207 327.21 414.207 325.001V217.569Z" fill="#F7FFFD"></path><path d="M210.977 209.001C212.081 209.001 212.977 208.106 212.977 207.001C212.977 205.896 212.081 205.001 210.977 205.001C209.872 205.001 208.977 205.896 208.977 207.001C208.977 208.106 209.872 209.001 210.977 209.001Z" fill="white"></path><path d="M203.361 209.001C204.466 209.001 205.361 208.106 205.361 207.001C205.361 205.896 204.466 205.001 203.361 205.001C202.257 205.001 201.361 205.896 201.361 207.001C201.361 208.106 202.257 209.001 203.361 209.001Z" fill="white"></path><path d="M218.592 209.001C219.696 209.001 220.592 208.106 220.592 207.001C220.592 205.896 219.696 205.001 218.592 205.001C217.487 205.001 216.592 205.896 216.592 207.001C216.592 208.106 217.487 209.001 218.592 209.001Z" fill="white"></path><path fill-rule="evenodd" clip-rule="evenodd" d="M321.411 243.001L309.609 263.434H316.739V301.832H326.078V263.434H333.207L321.411 243.001Z" fill="#F3BE74"></path><path fill-rule="evenodd" clip-rule="evenodd" d="M288.337 243.001H297.675V281.399H304.805L293.009 301.833L281.207 281.399H288.337V243.001Z" fill="#F3BE74"></path><path d="M108.047 364.839V401.095C108.047 402.542 108.622 403.93 109.645 404.953C110.668 405.977 112.056 406.552 113.504 406.552H535.559C536.275 406.552 536.984 406.41 537.645 406.136C538.307 405.862 538.908 405.46 539.413 404.953C539.919 404.446 540.32 403.844 540.593 403.182C540.866 402.52 541.005 401.811 541.004 401.095V364.839H108.047Z" fill="#262F63"></path><path d="M324.526 396.307C330.384 396.307 335.133 391.558 335.133 385.699C335.133 379.841 330.384 375.092 324.526 375.092C318.667 375.092 313.918 379.841 313.918 385.699C313.918 391.558 318.667 396.307 324.526 396.307Z" fill="#3245A6"></path><path opacity="0.4" d="M324.817 477.629C161.442 477.629 29.0004 473.601 29.0004 468.631C29.0004 463.661 161.442 459.633 324.817 459.633C488.191 459.633 620.633 463.661 620.633 468.631C620.633 473.601 488.191 477.629 324.817 477.629Z" fill="#021159"></path><path opacity="0.3" d="M494.207 124.649H509.094V124.649C515.227 124.649 520.92 121.469 524.137 116.248L526.899 111.764C532.367 102.887 544.531 101.112 552.309 108.056L554.501 110.014C556.158 111.493 558.301 112.311 560.522 112.311V112.311C568.614 112.311 572.63 122.127 566.857 127.799L542.543 151.687C537.592 156.552 535.104 163.394 535.775 170.302L536.809 180.953V188.574L525.596 183.087C506.386 173.688 494.207 154.17 494.207 132.785V124.649Z" fill="black"></path><path d="M498.857 93.1041V93.1041C514.87 93.1041 530.147 86.3837 540.967 74.5802L542.414 73.001L544.225 74.85C555.656 86.5246 571.307 93.1041 587.646 93.1041V93.1041V125.764C587.646 148.752 574.294 169.647 553.434 179.304L542.414 184.406L532.293 179.54C511.855 169.714 498.857 149.043 498.857 126.366V93.1041Z" fill="white"></path><path d="M519.773 114.238H564.549" stroke="#71BEB5" stroke-width="6" stroke-linecap="round"></path><path d="M557.268 101.497L566.732 114.602L557.268 127.343" stroke="#71BEB5" stroke-width="6" stroke-linecap="round" stroke-linejoin="round"></path><path d="M566.732 143.726L521.957 143.726" stroke="#71BEB5" stroke-width="6" stroke-linecap="round"></path><path d="M529.238 156.465L519.774 143.36L529.238 130.619" stroke="#71BEB5" stroke-width="6" stroke-linecap="round" stroke-linejoin="round"></path><path d="M226.246 376.964C226.38 375.342 226.466 373.712 226.466 372.051C226.466 339.439 200.027 313 167.415 313C139.638 313 116.348 332.188 110.057 358.028C104.719 352.659 97.4678 349.36 89.4762 349.36C74.2884 349.36 61.7696 361.288 59.9744 376.68C44.8495 378.058 33 390.766 33 406.253C33 422.653 46.2983 435.952 62.6986 435.952H221.301C237.702 435.952 251 422.653 251 406.253C251.016 391.522 240.3 379.318 226.246 376.964Z" fill="url(#paint0_linear_2793_2)"></path><g opacity="0.4"><path opacity="0.4" d="M115.624 95.2793C134.194 95.2793 149.248 80.2183 149.248 61.6396C149.248 43.061 134.194 28 115.624 28C97.0539 28 82 43.061 82 61.6396C82 80.2183 97.0539 95.2793 115.624 95.2793Z" fill="url(#paint1_linear_2793_2)"></path><path d="M120.511 49.5515C119.356 46.9346 117.458 45.3645 114.64 44.9159C113.896 44.8038 113.133 44.7851 112.39 44.7851C109.415 44.7664 106.46 44.7851 103.486 44.7664C102.077 44.7664 101 43.7383 101 42.4112C100.981 41.0467 102.057 40 103.505 40C111.842 40 120.178 40 128.495 40C129.943 40 131 41.0467 131 42.4112C130.98 43.7197 129.924 44.7477 128.515 44.7664C126.89 44.7851 125.247 44.7664 123.681 44.7664C124.425 46.3365 125.168 47.8692 125.971 49.5515C126.656 49.5515 127.536 49.5515 128.417 49.5515C129.924 49.5702 131 50.5795 131 51.9627C130.98 53.3085 129.904 54.2992 128.436 54.3179C127.556 54.3179 126.675 54.3179 125.853 54.3179C123.407 62.0936 117.615 64.561 109.513 63.7759C109.885 64.1684 110.061 64.3553 110.257 64.5423C115.188 69.2526 120.119 73.9629 125.051 78.6919C126.225 79.8134 126.323 81.1779 125.364 82.206C124.444 83.1592 122.977 83.2714 121.92 82.449C121.744 82.2994 121.568 82.1499 121.411 81.9817C114.953 75.8134 108.476 69.6451 102.037 63.4394C101.587 63.0095 101.176 62.3927 101.059 61.8133C100.765 60.374 101.959 59.103 103.505 59.103C106.714 59.0843 109.904 59.103 113.114 59.103C116.029 59.0843 118.339 57.9815 119.904 55.5702C120.061 55.3459 120.159 55.0842 120.296 54.8412C120.354 54.7104 120.413 54.5609 120.491 54.3366C120.139 54.3366 119.865 54.3366 119.591 54.3366C114.229 54.3366 108.867 54.3366 103.505 54.3366C102.272 54.3366 101.216 53.4767 101.039 52.3552C100.844 51.1403 101.587 50.0001 102.84 49.6636C103.153 49.5702 103.505 49.5702 103.838 49.5702C109.063 49.5702 114.307 49.5702 119.532 49.5702C119.806 49.5515 120.08 49.5515 120.511 49.5515Z" fill="#EAEDEE"></path><path opacity="0.4" d="M597.734 407.493C611.947 407.493 623.468 395.966 623.468 381.746C623.468 367.527 611.947 356 597.734 356C583.522 356 572 367.527 572 381.746C572 395.966 583.522 407.493 597.734 407.493Z" fill="url(#paint2_linear_2793_2)"></path><path d="M601.007 375.442C600.238 373.677 598.972 372.618 597.093 372.315C596.598 372.24 596.089 372.227 595.593 372.227C593.61 372.215 591.64 372.227 589.657 372.215C588.718 372.215 588 371.521 588 370.626C587.987 369.706 588.705 369 589.67 369C595.228 369 600.785 369 606.33 369C607.296 369 608 369.706 608 370.626C607.987 371.509 607.282 372.202 606.343 372.215C605.26 372.227 604.164 372.215 603.121 372.215C603.616 373.273 604.112 374.307 604.647 375.442C605.104 375.442 605.691 375.442 606.278 375.442C607.282 375.454 608 376.135 608 377.068C607.987 377.976 607.269 378.644 606.291 378.656C605.704 378.656 605.117 378.656 604.569 378.656C602.938 383.9 599.076 385.564 593.675 385.035C593.923 385.3 594.041 385.426 594.171 385.552C597.459 388.728 600.746 391.905 604.034 395.095C604.817 395.851 604.882 396.771 604.243 397.464C603.63 398.107 602.651 398.183 601.947 397.628C601.829 397.528 601.712 397.427 601.607 397.313C597.302 393.153 592.984 388.993 588.692 384.808C588.392 384.518 588.118 384.102 588.039 383.711C587.844 382.741 588.639 381.883 589.67 381.883C591.81 381.871 593.936 381.883 596.076 381.883C598.02 381.871 599.559 381.127 600.603 379.501C600.707 379.35 600.772 379.173 600.864 379.009C600.903 378.921 600.942 378.82 600.994 378.669C600.759 378.669 600.577 378.669 600.394 378.669C596.819 378.669 593.245 378.669 589.67 378.669C588.848 378.669 588.144 378.089 588.026 377.333C587.896 376.513 588.392 375.744 589.227 375.517C589.435 375.454 589.67 375.454 589.892 375.454C593.375 375.454 596.872 375.454 600.355 375.454C600.538 375.442 600.72 375.442 601.007 375.442Z" fill="#EAEDEE"></path><path opacity="0.4" d="M440.817 99.6509C451.209 99.6509 459.633 91.2225 459.633 80.8255C459.633 70.4284 451.209 62 440.817 62C430.424 62 422 70.4284 422 80.8255C422 91.2225 430.424 99.6509 440.817 99.6509Z" fill="url(#paint3_linear_2793_2)"></path><path d="M443.105 75.6647C442.566 74.3867 441.68 73.6199 440.365 73.4008C440.018 73.346 439.662 73.3369 439.315 73.3369C437.927 73.3278 436.548 73.3369 435.16 73.3278C434.502 73.3278 434 72.8257 434 72.1776C433.991 71.5112 434.493 71 435.169 71C439.059 71 442.95 71 446.831 71C447.507 71 448 71.5112 448 72.1776C447.991 72.8166 447.498 73.3186 446.84 73.3278C446.082 73.3369 445.315 73.3278 444.585 73.3278C444.932 74.0946 445.279 74.8431 445.653 75.6647C445.973 75.6647 446.384 75.6647 446.795 75.6647C447.498 75.6738 448 76.1667 448 76.8423C447.991 77.4995 447.489 77.9833 446.804 77.9925C446.393 77.9925 445.982 77.9925 445.598 77.9925C444.457 81.7899 441.753 82.9949 437.973 82.6115C438.146 82.8032 438.228 82.8945 438.32 82.9858C440.621 85.2861 442.922 87.5865 445.224 89.8961C445.772 90.4438 445.817 91.1101 445.37 91.6122C444.941 92.0778 444.256 92.1325 443.763 91.7309C443.68 91.6579 443.598 91.5848 443.525 91.5027C440.511 88.4903 437.489 85.4778 434.484 82.4472C434.274 82.2372 434.082 81.936 434.028 81.653C433.891 80.9501 434.448 80.3294 435.169 80.3294C436.667 80.3202 438.155 80.3294 439.653 80.3294C441.014 80.3202 442.091 79.7816 442.822 78.6041C442.895 78.4945 442.941 78.3667 443.005 78.248C443.032 78.1841 443.059 78.1111 443.096 78.0016C442.932 78.0016 442.804 78.0016 442.676 78.0016C440.174 78.0016 437.671 78.0016 435.169 78.0016C434.594 78.0016 434.101 77.5817 434.018 77.034C433.927 76.4406 434.274 75.8838 434.859 75.7194C435.005 75.6738 435.169 75.6738 435.324 75.6738C437.763 75.6738 440.21 75.6738 442.648 75.6738C442.776 75.6647 442.904 75.6647 443.105 75.6647Z" fill="#EAEDEE"></path><path opacity="0.4" d="M53.2533 230.526C64.4389 230.526 73.5066 221.454 73.5066 210.263C73.5066 199.072 64.4389 190 53.2533 190C42.0677 190 33 199.072 33 210.263C33 221.454 42.0677 230.526 53.2533 230.526Z" fill="url(#paint4_linear_2793_2)"></path><path d="M55.4058 204.109C54.79 202.709 53.7776 201.869 52.2747 201.629C51.8781 201.569 51.4711 201.559 51.0744 201.559C49.488 201.549 47.9121 201.559 46.3256 201.549C45.5742 201.549 45.0001 201 45.0001 200.29C44.9897 199.56 45.5637 199 46.3361 199C50.7822 199 55.2284 199 59.6641 199C60.4364 199 61 199.56 61 200.29C60.9896 200.99 60.426 201.539 59.6745 201.549C58.8082 201.559 57.9315 201.549 57.0966 201.549C57.4932 202.389 57.8898 203.209 58.3177 204.109C58.683 204.109 59.1527 204.109 59.6223 204.109C60.426 204.119 61 204.659 61 205.399C60.9896 206.119 60.4155 206.648 59.6328 206.658C59.1631 206.658 58.6934 206.658 58.2551 206.658C56.9505 210.818 53.8611 212.137 49.5402 211.717C49.7385 211.927 49.8325 212.027 49.9368 212.127C52.5669 214.647 55.1971 217.166 57.8272 219.696C58.4534 220.296 58.5056 221.025 57.9942 221.575C57.5036 222.085 56.7208 222.145 56.1573 221.705C56.0633 221.625 55.9694 221.545 55.8859 221.455C52.4417 218.156 48.9871 214.857 45.5533 211.537C45.3132 211.307 45.0941 210.977 45.0314 210.668C44.8749 209.898 45.5115 209.218 46.3361 209.218C48.0477 209.208 49.749 209.218 51.4606 209.218C53.0157 209.208 54.2473 208.618 55.0822 207.328C55.1657 207.208 55.2179 207.068 55.291 206.938C55.3223 206.868 55.3536 206.788 55.3954 206.668C55.2075 206.668 55.0614 206.668 54.9153 206.668C52.0555 206.668 49.1958 206.668 46.3361 206.668C45.6785 206.668 45.1149 206.208 45.021 205.609C44.9166 204.959 45.3132 204.349 45.9812 204.169C46.1482 204.119 46.3361 204.119 46.5135 204.119C49.3002 204.119 52.0973 204.119 54.8839 204.119C55.0301 204.109 55.1762 204.109 55.4058 204.109Z" fill="#EAEDEE"></path></g><defs><linearGradient id="paint0_linear_2793_2" x1="141.861" y1="367.043" x2="142.03" y2="441.376" gradientUnits="userSpaceOnUse"><stop stop-color="#F3BF75"></stop><stop offset="1" stop-color="#D99953"></stop></linearGradient><linearGradient id="paint1_linear_2793_2" x1="115.624" y1="93.8895" x2="115.624" y2="51.1391" gradientUnits="userSpaceOnUse"><stop stop-color="#A1ACE5"></stop><stop offset="1" stop-color="#92B7E5"></stop></linearGradient><linearGradient id="paint2_linear_2793_2" x1="597.734" y1="406.429" x2="597.734" y2="373.71" gradientUnits="userSpaceOnUse"><stop stop-color="#A1ACE5"></stop><stop offset="1" stop-color="#92B7E5"></stop></linearGradient><linearGradient id="paint3_linear_2793_2" x1="440.817" y1="98.8732" x2="440.817" y2="74.9491" gradientUnits="userSpaceOnUse"><stop stop-color="#A1ACE5"></stop><stop offset="1" stop-color="#92B7E5"></stop></linearGradient><linearGradient id="paint4_linear_2793_2" x1="53.2533" y1="229.689" x2="53.2533" y2="203.938" gradientUnits="userSpaceOnUse"><stop stop-color="#A1ACE5"></stop><stop offset="1" stop-color="#92B7E5"></stop></linearGradient></defs></svg> 