<?xml version="1.0" encoding="utf-8"?>
<!-- Generator: Adobe Illustrator 18.1.1, SVG Export Plug-In . SVG Version: 6.00 Build 0)  -->
<!DOCTYPE svg PUBLIC "-//W3C//DTD SVG 1.1//EN" "http://www.w3.org/Graphics/SVG/1.1/DTD/svg11.dtd">
<svg version="1.1" id="Layer_2" xmlns="http://www.w3.org/2000/svg" xmlns:xlink="http://www.w3.org/1999/xlink" x="0px" y="0px"
	 viewBox="298.5 -1.2 404.2 300" enable-background="new 298.5 -1.2 404.2 300" xml:space="preserve">
<g>
	<path fill="#FFFFFF" stroke="#199ED2" stroke-width="10" stroke-miterlimit="10" d="M469,61.8v-53c0,0-135.7,34.5-159.8,149.4
		c0,0-12.8,63.5,15.3,94.8c0,0,29.7,53,98,31.3c0,0,70.7-27.3,46.6-106.8c0,0-16.8-65-94-42.6C375,134.8,383,78.6,469,61.8z"/>
	<path fill="#199ED2" d="M347.4,280.2c0,0-26-15.3-38-47.4"/>
</g>
<g>
	<path fill="#FFFFFF" stroke="#199ED2" stroke-width="10" stroke-miterlimit="10" d="M689.9,63.4v-53
		c0,0-135.7,34.5-159.8,149.4c0,0-12.8,63.5,15.3,94.8c0,0,29.7,53,98,31.3c0,0,70.7-27.3,46.6-106.8c0,0-16.8-65-94-42.6
		C595.9,136.4,603.9,80.2,689.9,63.4z"/>
	<path fill="#199ED2" d="M568.3,281.8c0,0-26-15.3-38-47.4"/>
</g>
</svg>
