<svg fill="none" xmlns="http://www.w3.org/2000/svg" viewBox="0 0 429 320"><path d="M0 280.7h428.6v.2H0v-.2Zm309.3 9.7H351v.2h-41.7v-.2Zm51 .1h11v.2h-11v-.2ZM248.8 289h12.9v.3h-12.9v-.2Zm-57.4 0H244v.3h-52.5v-.2ZM68 290.7h48.7v.3H68v-.3Zm53.4 0h13v.3h-13v-.3ZM44 286.9h11.1v.2h-11v-.2Zm181.4-44.5H391a5 5 0 0 0 5-4.8V4.9a5 5 0 0 0-5-4.9H225.4a4.9 4.9 0 0 0-4.9 4.9v232.7c0 2.7 2.2 4.8 5 4.8ZM391 .3c2.6 0 4.7 2.1 4.7 4.7v232.7c0 2.5-2 4.6-4.7 4.6H225.4a4.7 4.7 0 0 1-4.7-4.6V4.9c0-2.6 2.1-4.7 4.7-4.7H391ZM40 242.4h165.5a5 5 0 0 0 5-4.8V4.9a5 5 0 0 0-5-4.9H40a4.9 4.9 0 0 0-4.9 4.9v232.7c0 2.7 2.2 4.8 5 4.8ZM205.5.3c2.6 0 4.7 2.1 4.7 4.7v232.7c0 2.5-2 4.6-4.7 4.6H40a4.7 4.7 0 0 1-4.7-4.6V4.9c0-2.6 2.1-4.7 4.7-4.7h165.5Z" fill="#D1E3FF"/><path d="M0 268h59c1.4 0 2.5-1 2.5-2.4V110.3c0-1.1.9-2 2-2h6.2v-.4h-6.3c-1.3 0-2.4 1-2.4 2.4v155.3c0 1-.9 2-2 2H0v.4Z" fill="#D1E3FF"/><path d="M0 264.9h57c1.4 0 2.5-1.1 2.5-2.5V107.2c0-1.1.9-2 2-2h8.2v-.5h-8.3a2.5 2.5 0 0 0-2.4 2.5v155.2a2 2 0 0 1-2 2H0v.5Z" fill="#D1E3FF"/><path d="M0 261.7h55c1.4 0 2.5-1 2.5-2.4V104c0-1 .8-2 2-2h10.2v-.4H59.4c-1.3 0-2.4 1-2.4 2.4v155.3a2 2 0 0 1-2 2H0v.4Z" fill="#D1E3FF"/><path d="M0 258.6h53c1.4 0 2.5-1.1 2.5-2.4V100.9c0-1.1.8-2 2-2h12.2v-.4H57.4c-1.3 0-2.4 1-2.4 2.4v155.3c0 1-.9 2-2 2H0v.4Z" fill="#D1E3FF"/><path d="M0 255.4h51c1.4 0 2.4-1 2.4-2.4V97.8c0-1.1 1-2 2-2h14.3v-.5H55.4a2.5 2.5 0 0 0-2.4 2.5V253a2 2 0 0 1-2 2H0v.5Z" fill="#D1E3FF"/><path d="M0 252.3h49c1.4 0 2.4-1 2.4-2.4V94.6c0-1 1-2 2-2h16.3v-.4H53.4c-1.3 0-2.4 1-2.4 2.4V250a2 2 0 0 1-2 2H0v.4Z" fill="#D1E3FF"/><path d="M0 249.2h47c1.3 0 2.4-1.1 2.4-2.4V91.5c0-1.1 1-2 2-2h18.3v-.4H51.4c-1.3 0-2.4 1-2.4 2.4v155.3c0 1-.9 2-2 2H0v.4Zm189.6-125.7h53v.4h-53v-.4Zm0-3.1h53v.4h-53v-.4Zm0-3.2h53v.4h-53v-.4Zm0-3.2h53v.5h-53v-.4Zm0-3h53v.4h-53v-.4Zm0-3.2h53v.4h-53v-.4Zm0-3.1h53v.4h-53v-.4Zm0 125h53v.5h-53v-.5Zm0-3.1h53v.4h-53v-.4Zm0-3.1h53v.4h-53v-.4Zm0-3.2h53v.5h-53v-.5Zm0-3.1h53v.4h-53v-.4Zm0-3.2h53v.5h-53v-.4Zm0-3h53v.4h-53v-.5Zm156.7 41.7H367c1.3 0 2.4-1 2.4-2.4V95c0-1 1-2 2-2h24.3v-.4h-24.3c-1.3 0-2.4 1-2.4 2.4v155.3a2 2 0 0 1-2 2h-20.6v.4Z" fill="#D1E3FF"/><path d="M346.3 255.8H369c1.3 0 2.4-1 2.4-2.4V98.2c0-1.1 1-2 2-2h22.3v-.5h-22.3a2.5 2.5 0 0 0-2.4 2.5v155.2a2 2 0 0 1-2 2h-22.6v.5Z" fill="#D1E3FF"/><path d="M346.3 259H371c1.4 0 2.4-1.1 2.4-2.4V101.3c0-1.1 1-2 2-2h20.3v-.4h-20.3c-1.3 0-2.4 1-2.4 2.4v155.3c0 1-.9 2-2 2h-24.6v.4Z" fill="#D1E3FF"/><path d="M346.3 262.1H373c1.4 0 2.4-1 2.4-2.4V104.4c0-1 1-2 2-2h18.3v-.4h-18.3c-1.3 0-2.4 1-2.4 2.4v155.3a2 2 0 0 1-2 2h-26.6v.4Z" fill="#D1E3FF"/><path d="M346.3 265.3H375c1.4 0 2.5-1.1 2.5-2.4V107.6c0-1.1.8-2 2-2h16.2v-.5h-16.3a2.5 2.5 0 0 0-2.4 2.5v155.3c0 1-.9 2-2 2h-28.6v.4Z" fill="#D1E3FF"/><path d="M346.3 268.4H377c1.4 0 2.5-1 2.5-2.4V110.7c0-1 .8-2 2-2h14.2v-.4h-14.3c-1.3 0-2.4 1-2.4 2.4V266c0 1-.9 2-2 2h-30.6v.4Z" fill="#D1E3FF"/><path d="M346.3 271.5H379c1.3 0 2.4-1 2.4-2.4V113.8c0-1 .9-2 2-2h12.2v-.4h-12.3a2.4 2.4 0 0 0-2.4 2.4v155.3a2 2 0 0 1-2 2h-32.6v.4Z" fill="#D1E3FF"/><path d="M259.4 267.8h87v12.9h-87v-13Z" fill="#E3EEFF"/><path d="M259.4 280.7h-17.7v-13h17.7v13Z" fill="#D1E3FF"/><path d="M259.4 39.8h92.8v228h-92.8v-228Z" fill="#EEF5FF"/><path d="M243.7 37.8h100.7v2H243.7v-2Zm15.7 230h-23.5v-228h23.5v228Zm2.7-225.3h87.4v25H262v-25Zm0 197.5h87.4v24.9H262v-25Zm0-28.3h87.4v25H262v-25Zm0-28.2h87.4v25H262v-25Zm0-28.2h87.4v25H262v-25Zm0-28.2h87.4v25H262v-25Zm0-28.1h87.4v24.9H262v-25Zm0-28.3h87.4v25H262v-25Z" fill="#E3EEFF"/><path opacity=".7" d="M269.2 46.1h17c2 0 3.7 1.6 3.7 3.6v10.6c0 2-1.7 3.6-3.7 3.6h-17c-2 0-3.6-1.6-3.6-3.6V49.7c0-2 1.6-3.6 3.6-3.6Z" fill="#fff"/><path d="M268.4 56.2v-2.4c0-.6.5-1 1-1h2.5c.6 0 1 .4 1 1v2.4c0 .6-.4 1.1-1 1.1h-2.4c-.6 0-1.1-.5-1.1-1.1Z" fill="#EEF5FF"/><path opacity=".7" d="M269.2 74.3h17c2 0 3.7 1.6 3.7 3.6v10.6c0 2-1.7 3.6-3.7 3.6h-17c-2 0-3.6-1.6-3.6-3.6V77.9c0-2 1.6-3.6 3.6-3.6Z" fill="#fff"/><path d="M268.4 84.4V82c0-.6.5-1 1-1h2.5c.6 0 1 .4 1 1v2.4c0 .6-.4 1.1-1 1.1h-2.4c-.6 0-1.1-.5-1.1-1Z" fill="#EEF5FF"/><path opacity=".7" d="M269.2 102.5h17c2 0 3.7 1.6 3.7 3.6v10.6c0 2-1.7 3.6-3.7 3.6h-17c-2 0-3.6-1.6-3.6-3.6V106c0-2 1.6-3.6 3.6-3.6Z" fill="#fff"/><path d="M268.4 112.6v-2.4c0-.6.5-1 1-1h2.5c.6 0 1 .4 1 1v2.4c0 .6-.4 1.1-1 1.1h-2.4c-.6 0-1.1-.5-1.1-1Z" fill="#EEF5FF"/><path opacity=".7" d="M269.2 130.7h17c2 0 3.7 1.6 3.7 3.6V145c0 2-1.7 3.6-3.7 3.6h-17c-2 0-3.6-1.6-3.6-3.6v-10.6c0-2 1.6-3.6 3.6-3.6Z" fill="#fff"/><path d="M268.4 140.8v-2.4c0-.6.5-1 1-1h2.5c.6 0 1 .4 1 1v2.4c0 .6-.4 1.1-1 1.1h-2.4c-.6 0-1.1-.5-1.1-1.1Z" fill="#EEF5FF"/><path opacity=".7" d="M269.2 158.9h17c2 0 3.7 1.6 3.7 3.6v10.6c0 2-1.7 3.6-3.7 3.6h-17c-2 0-3.6-1.6-3.6-3.6v-10.6c0-2 1.6-3.6 3.6-3.6Z" fill="#fff"/><path d="M268.4 169v-2.4c0-.6.5-1 1-1h2.5c.6 0 1 .4 1 1v2.4c0 .6-.4 1.1-1 1.1h-2.4c-.6 0-1.1-.5-1.1-1.1Z" fill="#EEF5FF"/><path opacity=".7" d="M269.2 187h17c2 0 3.7 1.7 3.7 3.7v10.6c0 2-1.7 3.6-3.7 3.6h-17c-2 0-3.6-1.6-3.6-3.6v-10.6c0-2 1.6-3.6 3.6-3.6Z" fill="#fff"/><path d="M268.4 197.2v-2.4c0-.6.5-1 1-1h2.5c.6 0 1 .4 1 1v2.4c0 .6-.4 1.1-1 1.1h-2.4c-.6 0-1.1-.5-1.1-1.1Z" fill="#EEF5FF"/><path opacity=".7" d="M269.2 215.3h17c2 0 3.7 1.6 3.7 3.6v10.6c0 2-1.7 3.6-3.7 3.6h-17c-2 0-3.6-1.6-3.6-3.6v-10.6c0-2 1.6-3.6 3.6-3.6Z" fill="#fff"/><path d="M268.4 225.4V223c0-.6.5-1 1-1h2.5c.6 0 1 .4 1 1v2.4c0 .6-.4 1.1-1 1.1h-2.4c-.6 0-1.1-.5-1.1-1.1Z" fill="#EEF5FF"/><path opacity=".7" d="M269.2 243.5h17c2 0 3.7 1.6 3.7 3.6v10.6c0 2-1.7 3.6-3.7 3.6h-17c-2 0-3.6-1.6-3.6-3.6V247c0-2 1.6-3.6 3.6-3.6Z" fill="#fff"/><path d="M268.4 253.6v-2.4c0-.6.5-1 1-1h2.5c.6 0 1 .4 1 1v2.4c0 .6-.4 1.1-1 1.1h-2.4c-.6 0-1.1-.5-1.1-1.1Zm7-197.4v-2.4c0-.6.5-1 1.1-1h2.4c.6 0 1.1.4 1.1 1v2.4c0 .6-.5 1-1 1h-2.5c-.6 0-1-.4-1-1Zm0 28.2V82c0-.6.5-1 1.1-1h2.4c.6 0 1.1.4 1.1 1v2.4c0 .6-.5 1-1 1h-2.5c-.6 0-1-.4-1-1Zm0 28.2v-2.4c0-.6.5-1 1.1-1h2.4c.6 0 1.1.4 1.1 1v2.4c0 .6-.5 1-1 1h-2.5c-.6 0-1-.4-1-1Zm0 28.2v-2.4c0-.6.5-1 1.1-1h2.4c.6 0 1.1.4 1.1 1v2.4c0 .6-.5 1.1-1 1.1h-2.5c-.6 0-1-.5-1-1.1Zm0 28.2v-2.4c0-.6.5-1 1.1-1h2.4c.6 0 1 .4 1 1v2.4c0 .6-.4 1.1-1 1.1h-2.4c-.6 0-1-.5-1-1.1Zm0 28.2v-2.4c0-.6.5-1 1.1-1h2.4c.6 0 1.1.4 1.1 1v2.4c0 .6-.5 1.1-1.1 1.1h-2.4c-.6 0-1-.5-1-1.1Zm0 28.2V223c0-.6.5-1 1.1-1h2.4c.6 0 1.1.4 1.1 1v2.4c0 .6-.5 1-1 1h-2.5c-.6 0-1-.4-1-1Zm0 28.2v-2.4c0-.6.5-1 1.1-1h2.4c.6 0 1.1.4 1.1 1v2.4c0 .6-.5 1-1 1h-2.5c-.6 0-1-.4-1-1Zm23.2-195.7a2.9 2.9 0 1 1 0-5.8 2.9 2.9 0 0 1 0 5.8ZM304 55a2.9 2.9 0 1 0 5.7 0 2.9 2.9 0 0 0-5.7 0Zm8.2 0a2.9 2.9 0 1 0 5.8 0 2.9 2.9 0 0 0-5.8 0Zm11.2 2.9a2.9 2.9 0 1 1 0-5.8 2.9 2.9 0 0 1 0 5.8ZM298.6 86a2.9 2.9 0 1 1 0-5.7 2.9 2.9 0 0 1 0 5.8Zm5.4-2.8a2.9 2.9 0 1 0 5.7 0 2.9 2.9 0 0 0-5.7 0Zm8.2 0a2.9 2.9 0 1 0 5.8 0 2.9 2.9 0 0 0-5.8 0Zm11.2 2.8a2.9 2.9 0 1 1 0-5.7 2.9 2.9 0 0 1 0 5.8Zm-27.7 25.4a2.9 2.9 0 1 0 5.8 0 2.9 2.9 0 0 0-5.8 0Zm8.3 0a2.9 2.9 0 1 0 5.7 0 2.9 2.9 0 0 0-5.7 0Zm8.2 0a2.9 2.9 0 1 0 5.8 0 2.9 2.9 0 0 0-5.8 0Zm8.3 0a2.9 2.9 0 1 0 5.7 0 2.9 2.9 0 0 0-5.7 0Zm-24.8 28.2a2.9 2.9 0 1 0 5.8 0 2.9 2.9 0 0 0-5.8 0Zm8.3 0a2.9 2.9 0 1 0 5.7 0 2.9 2.9 0 0 0-5.7 0Zm8.2 0a2.9 2.9 0 1 0 5.8 0 2.9 2.9 0 0 0-5.8 0Zm8.3 0a2.9 2.9 0 1 0 5.7 0 2.9 2.9 0 0 0-5.7 0Zm-24.8 28.2a2.9 2.9 0 1 0 5.8 0 2.9 2.9 0 0 0-5.8 0Zm8.3 0a2.9 2.9 0 1 0 5.7 0 2.9 2.9 0 0 0-5.7 0Zm8.2 0a2.9 2.9 0 1 0 5.8 0 2.9 2.9 0 0 0-5.8 0Zm8.3 0a2.9 2.9 0 1 0 5.7 0 2.9 2.9 0 0 0-5.7 0ZM295.7 196a2.9 2.9 0 1 0 5.8 0 2.9 2.9 0 0 0-5.8 0Zm8.3 0a2.9 2.9 0 1 0 5.7 0 2.9 2.9 0 0 0-5.7 0Zm8.2 0a2.9 2.9 0 1 0 5.8 0 2.9 2.9 0 0 0-5.8 0Zm8.3 0a2.9 2.9 0 1 0 5.7 0 2.9 2.9 0 0 0-5.7 0Zm-21.9 31a2.9 2.9 0 1 1 0-5.7 2.9 2.9 0 0 1 0 5.8Zm5.4-2.8a2.9 2.9 0 1 0 5.7 0 2.9 2.9 0 0 0-5.7 0Zm8.2 0a2.9 2.9 0 1 0 5.8 0 2.9 2.9 0 0 0-5.8 0Zm11.2 2.8a2.9 2.9 0 1 1 0-5.7 2.9 2.9 0 0 1 0 5.8Zm-24.8 28.3a2.9 2.9 0 1 1 0-5.8 2.9 2.9 0 0 1 0 5.8Zm5.4-2.9a2.9 2.9 0 1 0 5.7 0 2.9 2.9 0 0 0-5.7 0Zm8.2 0a2.9 2.9 0 1 0 5.8 0 2.9 2.9 0 0 0-5.8 0Zm11.2 2.9a2.9 2.9 0 1 1 0-5.8 2.9 2.9 0 0 1 0 5.8Z" fill="#EEF5FF"/><path d="M338.2 61.3a6.2 6.2 0 1 1 0-12.5 6.2 6.2 0 0 1 0 12.5Zm0 28.2a6.2 6.2 0 1 1 0-12.5 6.2 6.2 0 0 1 0 12.5Zm-6.2 22.9a6.2 6.2 0 1 1 12.4-2 6.2 6.2 0 0 1-12.4 2Zm0 28.2a6.2 6.2 0 1 1 12.4-2 6.2 6.2 0 0 1-12.3 2Zm3.9 33a6.2 6.2 0 1 1 4.7-11.5 6.2 6.2 0 0 1-4.7 11.5Zm0 28.2a6.2 6.2 0 1 1 4.7-11.5 6.2 6.2 0 0 1-4.7 11.5Zm2.3 28.7a6.2 6.2 0 1 1 0-12.5 6.2 6.2 0 0 1 0 12.5Zm0 28.2a6.2 6.2 0 1 1 0-12.5 6.2 6.2 0 0 1 0 12.5Z" fill="#D1E3FF"/><path d="M92 268.8h100.5v11.9H92v-11.9Z" fill="#E3EEFF"/><path d="M92 280.7H75.2v-11.9H92v11.9Z" fill="#D1E3FF"/><path d="M92 59.7h106.1v209.1H92v-209Z" fill="#EEF5FF"/><path d="M77 58h113.7v1.7H77.1V58Zm15 210.8H69.7v-209H92v209ZM195.5 85.2H94.6v-23h100.9v23Zm0 181H94.6v-22.9h100.9v23Zm0-25.9H94.6v-22.9h100.9v23Zm0-25.8H94.6v-23h100.9v23Zm0-25.9H94.6v-22.9h100.9v23Zm0-25.8H94.6v-23h100.9v23Zm0-25.9H94.6v-23h100.9v23Zm0-25.9H94.6V88.1h100.9v23Z" fill="#E3EEFF"/><path d="M188.9 81.9h-48.6a3.4 3.4 0 0 1-3.4-3.4v-9.6c0-1.9 1.5-3.4 3.4-3.4H189c1.8 0 3.4 1.5 3.4 3.4v9.6c0 1.9-1.6 3.4-3.4 3.4Z" fill="#D1E3FF"/><path d="M185.2 74.8v-2.2c0-.5.5-1 1-1h2.4c.5 0 1 .5 1 1v2.2c0 .5-.5 1-1 1h-2.3a1 1 0 0 1-1-1Z" fill="#EEF5FF"/><path d="M188.9 107.8h-48.6a3.4 3.4 0 0 1-3.4-3.4v-9.6c0-1.9 1.5-3.4 3.4-3.4H189c1.8 0 3.4 1.5 3.4 3.4v9.6c0 1.8-1.6 3.4-3.4 3.4Z" fill="#D1E3FF"/><path d="M185.2 100.6v-2.1c0-.6.5-1 1-1h2.4c.5 0 1 .4 1 1v2.1c0 .6-.5 1-1 1h-2.3a1 1 0 0 1-1-1Z" fill="#EEF5FF"/><path d="M188.9 133.6h-48.6a3.4 3.4 0 0 1-3.4-3.4v-9.5c0-2 1.5-3.4 3.4-3.4H189c1.8 0 3.4 1.5 3.4 3.4v9.5c0 1.9-1.6 3.4-3.4 3.4Z" fill="#D1E3FF"/><path d="M185.2 126.5v-2.1c0-.6.5-1 1-1h2.4c.5 0 1 .4 1 1v2.1c0 .6-.5 1-1 1h-2.3a1 1 0 0 1-1-1Z" fill="#EEF5FF"/><path d="M188.9 159.5h-48.6a3.4 3.4 0 0 1-3.4-3.4v-9.6c0-1.9 1.5-3.4 3.4-3.4H189c1.8 0 3.4 1.5 3.4 3.4v9.6c0 1.9-1.6 3.4-3.4 3.4Z" fill="#D1E3FF"/><path d="M185.2 152.4v-2.2c0-.5.5-1 1-1h2.4c.5 0 1 .5 1 1v2.2c0 .5-.5 1-1 1h-2.3a1 1 0 0 1-1-1Z" fill="#EEF5FF"/><path d="M188.9 185.3h-48.6a3.4 3.4 0 0 1-3.4-3.4v-9.5c0-1.9 1.5-3.4 3.4-3.4H189c1.8 0 3.4 1.5 3.4 3.4v9.5c0 2-1.6 3.4-3.4 3.4Z" fill="#D1E3FF"/><path d="M185.2 178.2v-2.1c0-.6.5-1 1-1h2.4c.5 0 1 .4 1 1v2.1c0 .6-.5 1-1 1h-2.3a1 1 0 0 1-1-1Z" fill="#EEF5FF"/><path d="M188.9 211.2h-48.6a3.4 3.4 0 0 1-3.4-3.4v-9.6c0-1.8 1.5-3.4 3.4-3.4H189c1.8 0 3.4 1.6 3.4 3.4v9.6c0 1.9-1.6 3.4-3.4 3.4Z" fill="#D1E3FF"/><path d="M185.2 204.1V202c0-.6.5-1 1-1h2.4c.5 0 1 .4 1 1v2.1c0 .6-.5 1-1 1h-2.3a1 1 0 0 1-1-1Z" fill="#EEF5FF"/><path d="M188.9 237h-48.6a3.4 3.4 0 0 1-3.4-3.3V224c0-1.9 1.5-3.4 3.4-3.4H189c1.8 0 3.4 1.5 3.4 3.4v9.6c0 1.9-1.6 3.4-3.4 3.4Z" fill="#D1E3FF"/><path d="M185.2 230v-2.2c0-.5.5-1 1-1h2.4c.5 0 1 .5 1 1v2.2c0 .5-.5 1-1 1h-2.3a1 1 0 0 1-1-1Z" fill="#EEF5FF"/><path d="M188.9 263h-48.6a3.4 3.4 0 0 1-3.4-3.5V250c0-1.9 1.5-3.4 3.4-3.4H189c1.8 0 3.4 1.5 3.4 3.4v9.5c0 2-1.6 3.4-3.4 3.4Z" fill="#D1E3FF"/><path d="M185.2 255.8v-2.1c0-.6.5-1 1-1h2.4c.5 0 1 .4 1 1v2.1c0 .6-.5 1-1 1h-2.3a1 1 0 0 1-1-1Zm-6.6-181v-2.2c0-.5.4-1 1-1h2.3c.5 0 1 .5 1 1v2.2c0 .5-.5 1-1 1h-2.3a1 1 0 0 1-1-1Zm0 25.8v-2.1c0-.6.4-1 1-1h2.3c.5 0 1 .4 1 1v2.1c0 .6-.5 1-1 1h-2.3a1 1 0 0 1-1-1Zm0 25.9v-2.1c0-.6.4-1 1-1h2.3c.5 0 1 .4 1 1v2.1c0 .6-.5 1-1 1h-2.3a1 1 0 0 1-1-1Zm0 25.9v-2.2c0-.5.4-1 1-1h2.3c.5 0 1 .5 1 1v2.2c0 .5-.5 1-1 1h-2.3a1 1 0 0 1-1-1Zm0 25.8v-2.1c0-.6.4-1 1-1h2.3c.5 0 1 .4 1 1v2.1c0 .6-.5 1-1 1h-2.3a1 1 0 0 1-1-1Zm0 25.9V202c0-.6.4-1 1-1h2.3c.5 0 1 .4 1 1v2.1c0 .6-.5 1-1 1h-2.3a1 1 0 0 1-1-1Zm0 25.9v-2.2c0-.5.4-1 1-1h2.3c.5 0 1 .5 1 1v2.2c0 .5-.5 1-1 1h-2.3a1 1 0 0 1-1-1Zm0 25.8v-2.1c0-.6.4-1 1-1h2.3c.5 0 1 .4 1 1v2.1c0 .6-.5 1-1 1h-2.3a1 1 0 0 1-1-1Zm-6.7-181v-2.2c0-.5.4-1 1-1h2.3c.6 0 1 .5 1 1v2.2c0 .5-.4 1-1 1H173a1 1 0 0 1-1-1Zm0 25.8v-2.1c0-.6.4-1 1-1h2.3c.6 0 1 .4 1 1v2.1c0 .6-.4 1-1 1h-2.3a1 1 0 0 1-1-1Zm0 25.9v-2.1c0-.6.4-1 1-1h2.3c.6 0 1 .4 1 1v2.1c0 .6-.4 1-1 1h-2.3a1 1 0 0 1-1-1Zm0 25.9v-2.2c0-.5.4-1 1-1h2.3c.6 0 1 .5 1 1v2.2c0 .5-.4 1-1 1h-2.3a1 1 0 0 1-1-1Zm0 25.8v-2.1c0-.6.4-1 1-1h2.3c.6 0 1 .4 1 1v2.1c0 .6-.4 1-1 1h-2.3a1 1 0 0 1-1-1Zm0 25.9V202c0-.6.4-1 1-1h2.3c.6 0 1 .4 1 1v2.1c0 .6-.4 1-1 1H173a1 1 0 0 1-1-1Zm0 25.9v-2.2c0-.5.4-1 1-1h2.3c.6 0 1 .5 1 1v2.2c0 .5-.4 1-1 1h-2.3a1 1 0 0 1-1-1Zm0 25.8v-2.1c0-.6.4-1 1-1h2.3c.6 0 1 .4 1 1v2.1c0 .6-.4 1-1 1h-2.3a1 1 0 0 1-1-1Zm-6.7-181v-2.2c0-.5.5-1 1-1h2.3c.6 0 1 .5 1 1v2.2c0 .5-.4 1-1 1h-2.3a1 1 0 0 1-1-1Zm0 25.8v-2.1c0-.6.5-1 1-1h2.3c.6 0 1 .4 1 1v2.1c0 .6-.4 1-1 1h-2.3a1 1 0 0 1-1-1Zm0 25.9v-2.1c0-.6.5-1 1-1h2.3c.6 0 1 .4 1 1v2.1c0 .6-.4 1-1 1h-2.3a1 1 0 0 1-1-1Zm0 25.9v-2.2c0-.5.5-1 1-1h2.3c.6 0 1 .5 1 1v2.2c0 .5-.4 1-1 1h-2.3a1 1 0 0 1-1-1Zm0 25.8v-2.1c0-.6.5-1 1-1h2.3c.6 0 1 .4 1 1v2.1c0 .6-.4 1-1 1h-2.3a1 1 0 0 1-1-1Zm0 25.9V202c0-.6.5-1 1-1h2.3c.6 0 1 .4 1 1v2.1c0 .6-.4 1-1 1h-2.3a1 1 0 0 1-1-1Zm0 25.9v-2.2c0-.5.5-1 1-1h2.3c.6 0 1 .5 1 1v2.2c0 .5-.4 1-1 1h-2.3a1 1 0 0 1-1-1Zm0 25.8v-2.1c0-.6.5-1 1-1h2.3c.6 0 1 .4 1 1v2.1c0 .6-.4 1-1 1h-2.3a1 1 0 0 1-1-1ZM131.3 73.7c0 1.5-1.2 2.6-2.7 2.6a2.7 2.7 0 0 1-2.8-2.6c0-1.4 1.3-2.6 2.8-2.6 1.5 0 2.7 1.2 2.7 2.6Zm-7.8 0c0 1.5-1.2 2.6-2.7 2.6a2.7 2.7 0 0 1-2.8-2.6c0-1.4 1.2-2.6 2.8-2.6 1.5 0 2.7 1.2 2.7 2.6Zm-7.8 0c0 1.5-1.3 2.6-2.8 2.6a2.7 2.7 0 0 1-2.7-2.6c0-1.4 1.2-2.6 2.7-2.6 1.5 0 2.8 1.2 2.8 2.6Zm-7.9 0c0 1.5-1.2 2.6-2.7 2.6a2.7 2.7 0 0 1-2.7-2.6c0-1.4 1.2-2.6 2.7-2.6 1.5 0 2.7 1.2 2.7 2.6Zm23.5 25.9c0 1.4-1.2 2.6-2.7 2.6a2.7 2.7 0 0 1-2.8-2.6c0-1.5 1.3-2.7 2.8-2.7 1.5 0 2.7 1.2 2.7 2.7Zm-7.8 0c0 1.4-1.2 2.6-2.7 2.6a2.7 2.7 0 0 1-2.8-2.6c0-1.5 1.2-2.7 2.8-2.7 1.5 0 2.7 1.2 2.7 2.7Zm-7.8 0c0 1.4-1.3 2.6-2.8 2.6a2.7 2.7 0 0 1-2.7-2.6c0-1.5 1.2-2.7 2.7-2.7 1.5 0 2.8 1.2 2.8 2.7Zm-7.9 0c0 1.4-1.2 2.6-2.7 2.6a2.7 2.7 0 0 1-2.7-2.6c0-1.5 1.2-2.7 2.7-2.7 1.5 0 2.7 1.2 2.7 2.7Zm23.5 25.8c0 1.5-1.2 2.7-2.7 2.7a2.7 2.7 0 0 1-2.8-2.7c0-1.4 1.3-2.6 2.8-2.6 1.5 0 2.7 1.2 2.7 2.6Zm-7.8 0c0 1.5-1.2 2.7-2.7 2.7a2.7 2.7 0 0 1-2.8-2.7c0-1.4 1.2-2.6 2.8-2.6 1.5 0 2.7 1.2 2.7 2.6Zm-7.8 0c0 1.5-1.3 2.7-2.8 2.7a2.7 2.7 0 0 1-2.7-2.7c0-1.4 1.2-2.6 2.7-2.6 1.5 0 2.8 1.2 2.8 2.6Zm-7.9 0c0 1.5-1.2 2.7-2.7 2.7a2.7 2.7 0 0 1-2.7-2.7c0-1.4 1.2-2.6 2.7-2.6 1.5 0 2.7 1.2 2.7 2.6Zm23.5 25.9c0 1.5-1.2 2.6-2.7 2.6a2.7 2.7 0 0 1-2.8-2.6c0-1.5 1.3-2.6 2.8-2.6 1.5 0 2.7 1.1 2.7 2.6Zm-7.8 0c0 1.5-1.2 2.6-2.7 2.6a2.7 2.7 0 0 1-2.8-2.6c0-1.5 1.2-2.6 2.8-2.6 1.5 0 2.7 1.1 2.7 2.6Zm-7.8 0c0 1.5-1.3 2.6-2.8 2.6a2.7 2.7 0 0 1-2.7-2.6c0-1.5 1.2-2.6 2.7-2.6 1.5 0 2.8 1.1 2.8 2.6Zm-7.9 0c0 1.5-1.2 2.6-2.7 2.6a2.7 2.7 0 0 1-2.7-2.6c0-1.5 1.2-2.6 2.7-2.6 1.5 0 2.7 1.1 2.7 2.6Zm23.5 25.9c0 1.4-1.2 2.6-2.7 2.6a2.7 2.7 0 0 1-2.8-2.6c0-1.5 1.3-2.7 2.8-2.7 1.5 0 2.7 1.2 2.7 2.7Zm-7.8 0c0 1.4-1.2 2.6-2.7 2.6a2.7 2.7 0 0 1-2.8-2.6c0-1.5 1.2-2.7 2.8-2.7 1.5 0 2.7 1.2 2.7 2.7Zm-7.8 0c0 1.4-1.3 2.6-2.8 2.6a2.7 2.7 0 0 1-2.7-2.6c0-1.5 1.2-2.7 2.7-2.7 1.5 0 2.8 1.2 2.8 2.7Zm-7.9 0c0 1.4-1.2 2.6-2.7 2.6a2.7 2.7 0 0 1-2.7-2.6c0-1.5 1.2-2.7 2.7-2.7 1.5 0 2.7 1.2 2.7 2.7Zm23.5 25.8c0 1.5-1.2 2.7-2.7 2.7a2.7 2.7 0 0 1-2.8-2.7c0-1.4 1.3-2.6 2.8-2.6 1.5 0 2.7 1.2 2.7 2.6Zm-7.8 0c0 1.5-1.2 2.7-2.7 2.7a2.7 2.7 0 0 1-2.8-2.7c0-1.4 1.2-2.6 2.8-2.6 1.5 0 2.7 1.2 2.7 2.6Zm-7.8 0c0 1.5-1.3 2.7-2.8 2.7a2.7 2.7 0 0 1-2.7-2.7c0-1.4 1.2-2.6 2.7-2.6 1.5 0 2.8 1.2 2.8 2.6Zm-7.9 0c0 1.5-1.2 2.7-2.7 2.7a2.7 2.7 0 0 1-2.7-2.7c0-1.4 1.2-2.6 2.7-2.6 1.5 0 2.7 1.2 2.7 2.6Zm23.5 25.9c0 1.4-1.2 2.6-2.7 2.6a2.7 2.7 0 0 1-2.8-2.6c0-1.5 1.3-2.7 2.8-2.7 1.5 0 2.7 1.2 2.7 2.7Zm-7.8 0c0 1.4-1.2 2.6-2.7 2.6a2.7 2.7 0 0 1-2.8-2.6c0-1.5 1.2-2.7 2.8-2.7 1.5 0 2.7 1.2 2.7 2.7Zm-7.8 0c0 1.4-1.3 2.6-2.8 2.6a2.7 2.7 0 0 1-2.7-2.6c0-1.5 1.2-2.7 2.7-2.7 1.5 0 2.8 1.2 2.8 2.7Zm-7.9 0c0 1.4-1.2 2.6-2.7 2.6a2.7 2.7 0 0 1-2.7-2.6c0-1.5 1.2-2.7 2.7-2.7 1.5 0 2.7 1.2 2.7 2.7Zm23.5 25.9c0 1.4-1.2 2.6-2.7 2.6a2.7 2.7 0 0 1-2.8-2.6c0-1.5 1.3-2.7 2.8-2.7 1.5 0 2.7 1.2 2.7 2.7Zm-7.8 0c0 1.4-1.2 2.6-2.7 2.6a2.7 2.7 0 0 1-2.8-2.6c0-1.5 1.2-2.7 2.8-2.7 1.5 0 2.7 1.2 2.7 2.7Zm-7.8 0c0 1.4-1.3 2.6-2.8 2.6a2.7 2.7 0 0 1-2.7-2.6c0-1.5 1.2-2.7 2.7-2.7 1.5 0 2.8 1.2 2.8 2.7Zm-7.9 0c0 1.4-1.2 2.6-2.7 2.6a2.7 2.7 0 0 1-2.7-2.6c0-1.5 1.2-2.7 2.7-2.7 1.5 0 2.7 1.2 2.7 2.7Z" fill="#EEF5FF"/><path d="M214.3 319.4c-91.8 0-166.2-4.4-166.2-9.7 0-5.4 74.4-9.7 166.2-9.7 91.8 0 166.2 4.3 166.2 9.7 0 5.3-74.4 9.7-166.2 9.7Z" fill="#F0F6FF"/><path d="M226.5 299h100.2v11.5H226.5V299Z" fill="#0053CC"/><path d="M321.6 300.7h2.5v8.1h-2.5v-8.1Zm-4.4 0h2.5v8.1h-2.5v-8.1Zm-4.5 0h2.6v8.1h-2.6v-8.1Zm-4.4 0h2.6v8.1h-2.6v-8.1Zm-4.3 0h2.4v8.1H304v-8.1Zm-4.5 0h2.5v8.1h-2.5v-8.1Zm-4.4 0h2.5v8.1h-2.5v-8.1Zm-4.4 0h2.5v8.1h-2.5v-8.1Zm-4.4 0h2.5v8.1h-2.5v-8.1Zm-4.4 0h2.5v8.1H282v-8.1Zm-4.4 0h2.5v8.1h-2.5v-8.1Zm-4.5 0h2.6v8.1H273v-8.1Zm-4.3 0h2.5v8.1h-2.5v-8.1Zm-4.4 0h2.5v8.1h-2.5v-8.1Zm-4.4 0h2.5v8.1h-2.5v-8.1Zm-4.5 0h2.6v8.1h-2.6v-8.1Zm-4.4 0h2.6v8.1H251v-8.1Zm-4.4 0h2.5v8.1h-2.5v-8.1Zm-4.4 0h2.5v8.1h-2.5v-8.1Zm-4.4 0h2.5v8.1h-2.5v-8.1Zm-4.4 0h2.5v8.1h-2.5v-8.1Zm-4.4 0h2.5v8.1H229v-8.1Z" style="mix-blend-mode:multiply" opacity=".2" fill="#0F264C"/><path d="M226.4 310.5h-15.6V299h15.6v11.5Z" fill="#0050AF"/><path d="M226.4 97H332v202H226.4V97Z" fill="#4EA4F9"/><path d="M212.5 95.2H325V97H212.5v-1.7Z" fill="#0D6AB7"/><path d="M335.2 191.1h.9v8.5h-.9v-8.5Zm0 11.4h.9v22.1h-.9v-22.1ZM226.5 299h-20.9V97h20.9v202Z" fill="#197BDD"/><path d="M231.7 150.4h95c1.5 0 2.7 1.3 2.7 2.8v14.5c0 1.5-1.2 2.8-2.8 2.8h-94.9a2.8 2.8 0 0 1-2.8-2.8v-14.5c0-1.5 1.3-2.8 2.8-2.8Z" fill="#0D6AB7" style="mix-blend-mode:multiply" opacity=".6"/><path d="m237.4 157.7 4-8.3v22H229v-11h4.2c1.8 0 3.5-1 4.3-2.7Z" fill="#197BDD"/><path d="M229 99.4h100.4v22.1H229V99.4Zm0 174.9h100.4v22.2H229v-22.2Zm0-25h100.4v22.2H229v-22.2Zm0-25h100.4v22.2H229v-22.2Zm0-24.9h100.4v22H229v-22Zm0-25h100.4v22.1H229v-22.1Zm12.4-25H342v22.1H241.4v-22.1Zm-12.4-25h100.4v22.1H229v-22.1Z" fill="#2B97EF"/><path d="M235.2 102.5h38.2c1.8 0 3.2 1.5 3.2 3.3v9.3c0 1.8-1.4 3.2-3.2 3.2h-38.2a3.2 3.2 0 0 1-3.3-3.2v-9.3c0-1.8 1.5-3.3 3.3-3.3Z" fill="#197BDD"/><path opacity=".2" d="M237.8 111v-1.2c0-.8.6-1.4 1.4-1.4h12.4c.7 0 1.4.6 1.4 1.4v1.3c0 .7-.7 1.4-1.4 1.4h-12.4c-.8 0-1.4-.7-1.4-1.4Z" fill="#fff"/><path d="M235.2 127.5h38.2c1.8 0 3.2 1.5 3.2 3.3v9.3c0 1.8-1.4 3.2-3.2 3.2h-38.2a3.2 3.2 0 0 1-3.3-3.2v-9.3c0-1.8 1.5-3.3 3.3-3.3Z" fill="#197BDD"/><path opacity=".2" d="M237.8 136v-1.2c0-.8.6-1.4 1.4-1.4h12.4c.7 0 1.4.6 1.4 1.4v1.3c0 .7-.7 1.4-1.4 1.4h-12.4c-.8 0-1.4-.7-1.4-1.4Z" fill="#fff"/><path d="M247.7 152.5h38.2c1.8 0 3.2 1.5 3.2 3.3v9.3c0 1.8-1.4 3.2-3.2 3.2h-38.2a3.2 3.2 0 0 1-3.3-3.2v-9.3c0-1.8 1.5-3.3 3.3-3.3Z" fill="#197BDD"/><path opacity=".2" d="M250.3 161v-1.2c0-.8.7-1.4 1.4-1.4h12.4c.8 0 1.4.6 1.4 1.4v1.3c0 .7-.6 1.4-1.4 1.4h-12.4c-.7 0-1.4-.7-1.4-1.4Z" fill="#fff"/><path d="M235.2 177.5h38.2c1.8 0 3.2 1.5 3.2 3.3v9.3c0 1.8-1.4 3.2-3.2 3.2h-38.2a3.2 3.2 0 0 1-3.3-3.2v-9.3c0-1.8 1.5-3.3 3.3-3.3Z" fill="#197BDD"/><path opacity=".2" d="M237.8 186v-1.2c0-.8.6-1.4 1.4-1.4h12.4c.7 0 1.4.6 1.4 1.4v1.3c0 .7-.7 1.3-1.4 1.3h-12.4c-.8 0-1.4-.6-1.4-1.3Z" fill="#fff"/><path d="M235.2 202.5h38.2c1.8 0 3.2 1.5 3.2 3.2v9.4c0 1.8-1.4 3.2-3.2 3.2h-38.2a3.2 3.2 0 0 1-3.3-3.2v-9.4c0-1.7 1.5-3.2 3.3-3.2Z" fill="#197BDD"/><path opacity=".2" d="M237.8 211v-1.2c0-.8.6-1.4 1.4-1.4h12.4c.7 0 1.4.6 1.4 1.4v1.3c0 .7-.7 1.3-1.4 1.3h-12.4c-.8 0-1.4-.6-1.4-1.3Z" fill="#fff"/><path d="M235.2 227.5h38.2c1.8 0 3.2 1.5 3.2 3.2v9.4c0 1.8-1.4 3.2-3.2 3.2h-38.2a3.2 3.2 0 0 1-3.3-3.2v-9.4c0-1.7 1.5-3.2 3.3-3.2Z" fill="#197BDD"/><path opacity=".2" d="M237.8 236v-1.2c0-.8.6-1.4 1.4-1.4h12.4c.7 0 1.4.6 1.4 1.4v1.3c0 .7-.7 1.3-1.4 1.3h-12.4c-.8 0-1.4-.6-1.4-1.3Z" fill="#fff"/><path d="M235.2 252.5h38.2c1.8 0 3.2 1.5 3.2 3.2v9.4c0 1.8-1.4 3.2-3.2 3.2h-38.2a3.2 3.2 0 0 1-3.3-3.2v-9.4c0-1.7 1.5-3.2 3.3-3.2Z" fill="#197BDD"/><path opacity=".2" d="M237.8 261v-1.2c0-.8.6-1.4 1.4-1.4h12.4c.7 0 1.4.6 1.4 1.4v1.3c0 .7-.7 1.3-1.4 1.3h-12.4c-.8 0-1.4-.6-1.4-1.3Z" fill="#fff"/><path d="M235.2 277.5h38.2c1.8 0 3.2 1.4 3.2 3.2v9.4c0 1.8-1.4 3.2-3.2 3.2h-38.2a3.2 3.2 0 0 1-3.3-3.2v-9.4c0-1.8 1.5-3.2 3.3-3.2Z" fill="#197BDD"/><path opacity=".2" d="M237.8 286v-1.2c0-.8.6-1.4 1.4-1.4h12.4c.7 0 1.3.6 1.3 1.4v1.3c0 .7-.6 1.3-1.3 1.3h-12.4c-.8 0-1.4-.6-1.4-1.3Z" fill="#fff"/><path d="M284.4 113a2.6 2.6 0 1 1 0-5.1 2.6 2.6 0 0 1 0 5Zm7.3 0a2.6 2.6 0 1 1 0-5.1 2.6 2.6 0 0 1 0 5Z" fill="#197BDD"/><path d="M299 113a2.6 2.6 0 1 1 0-5.1 2.6 2.6 0 0 1 0 5Z" fill="#64B9FF"/><path d="M303.7 110.4a2.5 2.5 0 1 0 5.1 0 2.5 2.5 0 1 0-5 0ZM284.4 138a2.6 2.6 0 1 1 0-5.1 2.6 2.6 0 0 1 0 5Zm7.3 0a2.6 2.6 0 1 1 0-5.1 2.6 2.6 0 0 1 0 5Zm7.3 0a2.6 2.6 0 1 1 0-5.1 2.6 2.6 0 0 1 0 5Z" fill="#197BDD"/><path d="M303.7 135.4a2.5 2.5 0 1 0 5.1 0 2.6 2.6 0 1 0-5 0ZM297 163a2.6 2.6 0 1 1 0-5.1 2.6 2.6 0 0 1 0 5Z" fill="#64B9FF"/><path d="M304.2 163a2.6 2.6 0 1 1 0-5.1 2.6 2.6 0 0 1 0 5Z" fill="#197BDD"/><path d="M311.5 163a2.6 2.6 0 1 1 0-5.1 2.6 2.6 0 0 1 0 5Z" fill="#64B9FF"/><path d="M318.8 163a2.6 2.6 0 1 1 0-5.1 2.6 2.6 0 0 1 0 5Z" fill="#197BDD"/><path d="M284.4 188a2.6 2.6 0 1 1 0-5.1 2.6 2.6 0 0 1 0 5Zm7.3 0a2.6 2.6 0 1 1 0-5.1 2.6 2.6 0 0 1 0 5Z" fill="#64B9FF"/><path d="M299 188a2.6 2.6 0 1 1 0-5.1 2.6 2.6 0 0 1 0 5Zm4.7-2.6a2.5 2.5 0 1 0 5.1 0 2.5 2.5 0 0 0-5 0ZM284.4 213a2.6 2.6 0 1 1 0-5.1 2.6 2.6 0 0 1 0 5Z" fill="#197BDD"/><path d="M291.7 213a2.6 2.6 0 1 1 0-5.1 2.6 2.6 0 0 1 0 5Z" fill="#64B9FF"/><path d="M299 213a2.6 2.6 0 1 1 0-5.1 2.6 2.6 0 0 1 0 5Zm4.7-2.6a2.5 2.5 0 1 0 5.1 0 2.5 2.5 0 0 0-5 0ZM284.4 238a2.6 2.6 0 1 1 0-5.1 2.6 2.6 0 0 1 0 5Zm7.3 0a2.6 2.6 0 1 1 0-5.1 2.6 2.6 0 0 1 0 5Z" fill="#197BDD"/><path d="M299 238a2.6 2.6 0 1 1 0-5.1 2.6 2.6 0 0 1 0 5Zm4.7-2.6a2.6 2.6 0 1 0 5.1 0 2.6 2.6 0 0 0-5 0Zm-21.9 25a2.5 2.5 0 1 0 5.1 0 2.6 2.6 0 1 0-5 0Z" fill="#64B9FF"/><path d="M289.1 260.4a2.5 2.5 0 1 0 5.1 0 2.5 2.5 0 1 0-5 0Zm7.3 0a2.5 2.5 0 1 0 5.1 0 2.5 2.5 0 1 0-5 0Zm7.3 0a2.5 2.5 0 1 0 5.1 0 2.5 2.5 0 1 0-5 0ZM284.4 288a2.6 2.6 0 1 1 0-5.1 2.6 2.6 0 0 1 0 5Zm7.3 0a2.6 2.6 0 1 1 0-5.1 2.6 2.6 0 0 1 0 5Z" fill="#197BDD"/><path d="M299 288a2.6 2.6 0 1 1 0-5.1 2.6 2.6 0 0 1 0 5Z" fill="#64B9FF"/><path d="M303.7 285.4a2.5 2.5 0 1 0 5.1 0 2.5 2.5 0 0 0-5 0Z" fill="#197BDD"/><path opacity=".2" d="M314 110.4a5.5 5.5 0 1 0 11 0 5.5 5.5 0 0 0-11 0Zm0 25a5.5 5.5 0 1 0 11 0 5.5 5.5 0 0 0-11 0Zm12.5 25a5.5 5.5 0 1 0 11 0 5.5 5.5 0 0 0-11 0Zm-12.5 25a5.5 5.5 0 1 0 11 0 5.5 5.5 0 0 0-11 0Zm0 25a5.5 5.5 0 1 0 11 0 5.5 5.5 0 0 0-11 0Zm0 25a5.5 5.5 0 1 0 11 0 5.5 5.5 0 0 0-11 0Zm0 25a5.5 5.5 0 1 0 11 0 5.5 5.5 0 0 0-11 0Zm0 25a5.5 5.5 0 1 0 11 0 5.5 5.5 0 0 0-11 0Z" fill="#fff"/><path d="M237.8 77.6c.8-4.2 3.4-7.8 7-9.9v-.3c0-8 6.4-14.3 14.3-14.3h5.5v1c3.7 1.6 6.5 4.5 8 8.3l1.4-.2c3.6 0 6.6 2.3 7.9 5.4a10.4 10.4 0 0 1 12.5 9.7c.1 5.8-4.5 10.5-10.2 10.5h-38.8a7.8 7.8 0 0 1-7.8-7.6c0-1 0-1.8.2-2.6Z" fill="#197BDD"/><path d="M243.3 77.6c.8-4.2 3.4-7.8 7-9.9v-.3a14.3 14.3 0 0 1 27.7-5l1.4-.2c3.6 0 6.7 2.3 8 5.4a10.4 10.4 0 0 1 12.5 9.8c.1 5.7-4.5 10.4-10.2 10.4h-38.8a7.8 7.8 0 0 1-7.8-7.6c0-1 0-1.8.2-2.6Z" fill="#4EA4F9"/><path d="M263.6 44h.7v2.2h-.7V44ZM125.7 93h.7v-4.4h-.7V93Zm0-8.7h.7v-4.2h-.7v4.2Zm0-8.5h.7v-4.3h-.7v4.3Zm0-8.6h.7V63h-.7v4.3Zm0-8.5h.7v-4.3h-.7v4.3Zm0-8.6h.7v-4.3h-.7v4.3Zm0-8.6h.7v-4.2h-.7v4.2Zm137.9-1.8h.7v-4.3l-.8.1v4.3ZM127 33.2a13 13 0 0 1 2.1-3.6l-.5-.5c-1 1.2-1.8 2.4-2.3 3.8l.7.3Zm135.2-1.6.7-.4c-.7-1.3-1.7-2.4-2.8-3.3l-.5.5c1 .9 2 2 2.6 3.2ZM132.4 27c1.2-.6 2.5-1 4-1.1l-.1-.7c-1.5 0-3 .5-4.3 1.2l.4.6Zm123.6-.7.2-.6c-1.1-.4-2.3-.6-3.5-.6h-.8v.7h.8c1.1 0 2.2.2 3.3.5ZM140.6 26h4.3v-.7h-4.3v.7Zm8.5 0h4.3v-.7h-4.3v.7Zm8.6 0h4.3v-.7h-4.3v.7Zm8.6 0h4.2v-.7h-4.2v.7Zm8.5 0h4.3v-.7h-4.3v.7Zm8.6 0h4.3v-.7h-4.3v.7Zm8.6 0h4.2v-.7H192v.7Zm8.5 0h4.3v-.7h-4.3v.7Zm8.6 0h4.3v-.7H209v.7Zm8.5 0h4.3v-.7h-4.3v.7Zm8.6 0h4.3v-.7h-4.3v.7Zm8.6 0h4.2v-.7h-4.2v.7Zm8.5 0h4.3v-.7h-4.3v.7ZM125.7 97.2h.7v2.2h-.7v-2.2Z" fill="#0053CC"/><path d="M183.3 304H177l-.7-14.6h6.3l.7 14.6Z" fill="#FF8B7B"/><path d="M176.7 303.3h7c.2 0 .4.2.4.4l1 5.6a1 1 0 0 1-.9 1.1l-9.1-.1c-3.7 0-4.2.2-8.5.2-2.6 0-3.2-2.7-2-2.9 4.9-1 6.3-1.2 10.6-3.8a3 3 0 0 1 1.5-.5Z" fill="#14365B"/><path d="m176.3 289.5.3 7.5h6.3l-.3-7.5h-6.3Z" fill="#EA7063"/><path d="m141 94.4.4 6.3v6.2a78.3 78.3 0 0 1-1.1 11.6c-.2.8-.5 1.5-.8 2l-.3.5-.4.7-.8 1.2a358.6 358.6 0 0 1-11.8 15l3.3 3.8a78.6 78.6 0 0 0 15.5-13.3l1.2-1.4.5-.7.6-.9a18 18 0 0 0 2-4c.9-2.5 1.3-4.9 1.7-7.2a72.7 72.7 0 0 0 .6-13.9c0-2.3-.2-4.5-.4-6.8l-10.2 1Z" fill="#FF8B7B"/><path d="m138.8 107.3 2.7 1.1 4.5 1.8 8 3.2s3.6-19 1.7-24.7c-2.2-6.3-9.8-6.2-14 1-4 7-2.9 17.6-2.9 17.6Z" fill="#9FC6FF"/><path d="m141.9 108.6 4.1 1.6c.7-3 1.3-8-.7-11.7-2.8 2.3-3.2 7-3.4 10Z" fill="#77B3FC"/><path d="M146 134.9h34.4c.3-3-.5-11.5 0-22.9a164 164 0 0 1 3.9-28s-5.9-1.2-11.5-1.5a63.1 63.1 0 0 0-24.7 1.8s-8 14.4-2.1 50.6Z" fill="#9FC6FF"/><path d="m180.4 112 .6-8.3c-1.1-.7-2.6-.8-2.9 3.3-.2 3.8 1 4.8 2.3 5Z" fill="#77B3FC"/><path d="m116.4 142.4 5 3.1 6.1-1.3-4.8-6-6.3 4.2Z" fill="#FF8B7B"/><path d="m128.4 137.2-5.7 1 4.8 6s3.1-.3 4-4.4l-3.1-2.6ZM172 66c-1.2 4.7-2.4 13.3.8 16.5 0 0-1.6 3.2-10.4 3.2-8 0-4.3-3.2-4.3-3.2 5.4-1.3 5.4-5.2 4.6-8.8l9.2-7.7Z" fill="#FF8B7B"/><path d="m168.2 69.1-5.5 4.6c.2.8.3 1.7.3 2.6 1.7 1.6 4.9-2.5 5.2-4.6V69Z" fill="#EA7063"/><path d="M153.2 54c-2.2 2.7.4 11.3 5 11.1 4.5-.2-.8-16.3-5-11.1Z" fill="#0F264C"/><path d="M171 58.2c.5 6.3 1.1 10-1.6 13.8a8.4 8.4 0 0 1-14.8-1.8c-2.1-5.5-2.6-15 3.3-18.5a8.5 8.5 0 0 1 13.1 6.5Z" fill="#FF8B7B"/><path d="m173.3 50.2-6.9 2.4c3 4-1.3 13.5 4 11.7 2.4-.8 10.4-9.6 2.9-14.1Z" fill="#0F264C"/><path d="M170 51.8c-2.6 2-13.1 4.2-19.2.8 1.6-.3 3.6-1.3 3.6-1.3s-4.5-.3-6.5-3.6c4.3.7 7.2-.6 8.3-1-2-.5-4-2.5-4.6-4 8.3.2 26.2 1.8 23.1 7.7-3.1 5.9-4.7 1.4-4.7 1.4Z" fill="#0F264C"/><path d="M173.6 51s2-1 3.4-2.4c.4 1 .3 3.7-3.4 2.4Z" fill="#0F264C"/><path d="M174.8 64.6c-.7 1.6-2 2.7-3.3 3.3-2 .8-3.2-.9-2.8-2.9.4-1.8 1.8-4.4 4-4.3 2 0 3 2 2.1 3.9ZM164 304h-6.4l-1.3-14.6h6.3L164 304Z" fill="#FF8B7B"/><path d="M157.4 303.3h6.8c.3 0 .5.2.5.4l1 5.6a1 1 0 0 1-.8 1.1l-9.2-.1-11.1.2c-2.6 0-3.2-2.7-2.1-2.9 5-1 9-1.2 13.3-3.8a3 3 0 0 1 1.6-.5Z" fill="#14365B"/><path d="m156.3 289.5.7 7.5h6.3l-.7-7.5h-6.3Z" fill="#EA7063"/><path d="M154.7 304.3c-.5 0-1 0-1.2-.2-.3-.1-.4-.4-.5-.7 0-.3.1-.4.2-.5.7-.4 3 .5 3.2.6v.2c-.5.3-1 .5-1.7.6Zm-1-1.2h-.3v.3c0 .2 0 .4.2.5.4.2 1.2.1 2.3-.3a6 6 0 0 0-2.3-.5Z" fill="#407BFF"/><path d="M156.3 303.8c-.7-.3-2.2-1.5-2.2-2.2 0-.1.1-.4.5-.5l.7.1c.8.5 1.1 2.3 1.2 2.4v.2h-.2Zm-1.6-2.4c-.2 0-.2.2-.2.2 0 .4.9 1.4 1.6 1.8-.1-.6-.5-1.6-1-2h-.4Z" fill="#407BFF"/><path d="M165.7 295.2h-10.3s-15.8-60.3-15.4-80.8c.3-19.6 6-79.5 6-79.5h22.6l-3.7 29.8a1519 1519 0 0 0-5.7 53.3c-1.1 20.1 6.5 77.2 6.5 77.2Z" fill="#0053CC"/><path d="M164.9 164.7a1861 1861 0 0 0-5 43.7c-2.3-10.7-8.2-42 .6-57.9a36 36 0 0 1 4.4 14.2Z" fill="#004DAA"/><path d="M158.2 134.9s.8 57.7 4.2 76.2c3.7 20.2 11 84 11 84h11.8s-1.7-62.2-3.5-82.2c-2-21.7-1.3-78-1.3-78h-22.2Z" fill="#0053CC"/><path d="M185.6 295.4H173l-1-4.8 14.2-.4-.5 5.2Zm-19.3 0h-12.7l-1-4.8 14 .3-.3 4.5Z" fill="#0F264C"/><path d="M180.7 288.2v-.1c0-.6-.9-56.5-2.5-74.4-1.7-19.5-.6-71.3-.7-71.7v-.1l-.2.1c0 .4-1 52.2.7 71.7 1.6 18 2.5 73.8 2.6 74.4v.1Z" fill="#9FC6FF"/><path d="M161.7 61.7c0 .5-.2 1-.5 1-.4 0-.7-.3-.8-.8 0-.5.2-1 .5-1 .4-.1.7.2.8.8Zm-6 .7c0 .5-.1 1-.5 1-.3 0-.6-.3-.7-.8 0-.5.1-1 .5-1 .3-.1.6.3.7.8Z" fill="#0F264C"/><path d="M157.7 62.5s-.7 3.2-1.8 4.9c1 .6 2.5 0 2.5 0l-.7-4.9Z" fill="#FF5652"/><path d="m159.5 69.4-.2-.1s0-.2.2-.2c2.2-.3 3.1-2 3.1-2s.2-.1.2 0l.1.1c0 .1-1 2-3.4 2.2Zm3.7-11.4-.2-.1c-1-.8-2.2-.5-2.2-.5-.1 0-.3 0-.4-.2 0-.1 0-.3.2-.3.1 0 1.4-.5 2.8.5v.5h-.2Z" fill="#0F264C"/><path d="m179.2 82.8-1.6-.2c-.2 0-.3.1-.4.3-5.4 24.3-3.7 50.1-3.7 50.1h1.7c-.5-26.8 3.7-47 4.3-49.9 0-.1-.1-.3-.3-.3Z" fill="#318FFF"/><path d="M175 133.6h-1.3a.6.6 0 0 1-.6-.6c0-.3.3-.6.6-.6h1.3c.3 0 .5.3.5.6s-.3.6-.6.6Z" fill="#0F264C"/><path d="M173.5 135.1v-1.6c0-.4.4-.8.8-.8.5 0 .8.4.8.8l-.1 1.6c0 .4-.4.8-.8.8a.7.7 0 0 1-.7-.8ZM153 59.3h-.1a.3.3 0 0 1-.2-.4 3 3 0 0 1 2-2l.3.1c0 .2 0 .4-.2.4 0 0-1.1.4-1.5 1.7l-.3.2Z" fill="#0F264C"/><path d="M180.4 94.1a480.6 480.6 0 0 1 4 18.4c.3 2 .6 4 .6 5.7 0 3.3-1.3 6.5-3.5 9.5a27.7 27.7 0 0 1-7.5 7l-1.2.7 1.9 4.7a27.1 27.1 0 0 0 6.6-2.9c2-1.2 4-2.7 5.8-4.4a22.5 22.5 0 0 0 7-13.9c.2-2.8.1-5.1 0-7.5a91.4 91.4 0 0 0-3.9-20l-9.8 2.7Z" fill="#FF8B7B"/><path d="M184.3 84c6.8 1.2 10.7 19.4 10.7 19.4l-16.9 6s-1.3-6 0-13.8c1.2-7.8-.3-12.8 6.2-11.6Z" fill="#9FC6FF"/><path d="m152 83.1-1.7.3-.3.3c-4.2 24.3-1.4 49.3-1.4 49.3h1.8a228.8 228.8 0 0 1 1.9-49.5c0-.3-.2-.4-.4-.4Z" fill="#318FFF"/><path d="M150 133.6h-1.2a.6.6 0 0 1 0-1.2h1.3a.6.6 0 0 1 0 1.2Z" fill="#0F264C"/><path d="M148.7 135.1v-1.6c0-.4.3-.8.7-.8.5 0 .8.4.8.8v1.6c0 .4-.3.8-.7.8a.8.8 0 0 1-.8-.8Z" fill="#0F264C"/><path d="M174.1 304.3c-.5 0-1 0-1.3-.2-.2-.1-.3-.4-.4-.7 0-.3.1-.4.2-.5.7-.4 3 .5 3.2.6v.2c-.5.3-1 .5-1.7.6ZM173 303h-.2v.3c0 .2 0 .4.2.5.4.2 1.2.1 2.3-.3a6 6 0 0 0-2.3-.5Z" fill="#407BFF"/><path d="M175.7 303.8c-.8-.3-2.2-1.5-2.2-2.2 0-.1.1-.4.5-.5l.6.1c.9.5 1.2 2.3 1.3 2.4v.2h-.2Zm-1.6-2.4c-.2 0-.2.2-.2.2 0 .4.9 1.4 1.6 1.8-.1-.6-.5-1.6-1-2h-.4Z" fill="#407BFF"/><path d="m178 138.9-2-3.6-5.5.2-4.2 1.7-2.8 4.2 7.3-.4s4.5 1.3 7.1-2.1Z" fill="#FF8B7B"/><path d="m163 85.6 1.3-.9 2.5 2.6-3.8-1.7Z" fill="#77B3FC"/><path d="M164.3 84.7s2 3.1 2.4 5.4c2.7-1.1 7.8-3.9 8.6-7.7-1-.2-2.7-1.3-2.7-1.3s-2.7 2.2-8.3 3.6Z" fill="#318FFF"/><path d="m163 85.6-.5-1-3.6 2.7 4-1.7Z" fill="#77B3FC"/><path d="M162.5 84.6s-2.3 2-2.7 5c-2.6-1.2-3.5-4.7-2.8-7.1 1.5-.7 3.2-1 3.2-1s-.4 2.3 2.3 3Zm-61.7 25.5 54-1.9 7.7 31.6-54 1.9-7.7-31.6Z" fill="#318FFF"/><path d="m99.1 110.2 54-2 7.8 31.6-54 2-7.8-31.6Z" fill="#0F264C"/><path d="m107 141.8.1 1.7 54-2-.2-1.7-54 2Z" fill="#0F264C"/><path d="m160.9 139.8.2 1.8 21.2-.8-.2-1.7-21.2.7Z" fill="#318FFF"/></svg>